<svg xmlns="http://www.w3.org/2000/svg" viewBox="0 0 31.9 30.5" width="100%" height="100%">
  <path d="M31.9 14.5c0-1.9-1.6-3.5-3.5-3.5-.9 0-1.8.4-2.4 1-2.8-1.9-6-2.9-9.4-3l1.6-7.5 5.2 1.1c.1 1.4 1.3 2.5 2.7 2.4 1.4-.1 2.5-1.2 2.4-2.6C28.4 1 27.2-.1 25.8 0c-.9 0-1.7.6-2.1 1.4L17.9.2c-.3-.1-.7.1-.7.5l-1.8 8.2V9c-3.4 0-6.7 1.1-9.5 3-1.4-1.3-3.6-1.3-4.9.1-1.3 1.4-1.3 3.6.1 4.9.3.3.6.5 1 .7-.1.3-.1.7-.1 1 0 5.4 6.3 9.8 14 9.8s14-4.4 14-9.8c0-.4 0-.7-.1-1 1.2-.6 2-1.8 2-3.2zM7.9 17c0-1.4 1.1-2.5 2.5-2.5s2.5 1.1 2.5 2.5-1.1 2.5-2.5 2.5-2.5-1.1-2.5-2.5zm14 6.6c-1.7 1.7-5 1.8-5.9 1.8s-4.2-.1-5.9-1.8c-.3-.3-.3-.7 0-.9.3-.3.7-.3.9 0 1.1 1.1 3.4 1.5 5 1.5s3.9-.4 5-1.5c.3-.3.7-.3.9 0 .2.2.2.7 0 .9zm-.5-4.1c-1.4 0-2.5-1.1-2.5-2.5s1.1-2.5 2.5-2.5 2.5 1.1 2.5 2.5-1.1 2.5-2.5 2.5z"></path>
</svg>