<?xml version="1.0" encoding="UTF-8"?>
<svg width="17px" height="20px" viewBox="0 0 17 20" version="1.1" xmlns="http://www.w3.org/2000/svg" xmlns:xlink="http://www.w3.org/1999/xlink">
    <g stroke="none" stroke-width="1" fill="none" fill-rule="evenodd" transform="translate(-1346.000000, -6.000000)">
        <g id="Nav" fill="#000000" fill-rule="nonzero">
            <g id="Utility" transform="translate(1267.000000, 6.000000)">
                <path d="M96,19.9490391 C96,19.9971477 94.2087402,20.0343282 94.2087402,19.9490391 C94.2087402,16.0479812 91.3981206,12.567627 87.5058026,12.567627 C83.6134847,12.567627 80.9057617,16.0479812 80.9057617,19.9490391 C80.9057617,20.0150066 79,19.9708776 79,19.9490391 C79,15.2408658 82.8081776,10.7170196 87.5058026,10.7170196 C92.2034277,10.7170196 96,15.2408658 96,19.9490391 Z M87.5058026,10.2298823 C84.6872276,10.2298823 82.4023211,7.93984516 82.4023211,5.11494115 C82.4023211,2.29003714 84.6872276,0 87.5058026,0 C90.3243777,0 92.6092842,2.29003714 92.6092842,5.11494115 C92.6092842,7.93984516 90.3243777,10.2298823 87.5058026,10.2298823 Z M87.5058026,8.49917642 C89.3706767,8.49917642 90.8824558,6.98400267 90.8824558,5.11494115 C90.8824558,3.24587963 89.3706767,1.73070588 87.5058026,1.73070588 C85.6409286,1.73070588 84.1291494,3.24587963 84.1291494,5.11494115 C84.1291494,6.98400267 85.6409286,8.49917642 87.5058026,8.49917642 Z" id="Account"></path>
            </g>
        </g>
    </g>
</svg>