<svg xmlns="http://www.w3.org/2000/svg" viewBox="0 0 61.87 62.2" width="100%" height="100%">
    <path id="acKKhT4l.tif" class="accls-1" d="M59.91 19.66c6.2 15.2-3 34.8-18.1 40.6a28.06 28.06 0 0 1-10.3 1.9c-10.1.1-20.3 0-30.4 0a2.77 2.77 0 0 1-.9-.1c0-.3-.1-.5-.1-.8 0-10.6-.3-21.3.1-31.9.5-12.1 6.6-21.4 17.6-26.2 22.19-9.4 36.3 4 42.1 16.5zM11 51c.8-.3 1.3-.4 1.7-.6 3.1-.7 6.3-1.5 9.4-2.1a3.42 3.42 0 0 1 2 .1 19.07 19.07 0 0 0 11.8.4 18.82 18.82 0 0 0 12.4-25.1c-2.1-5.3-5.4-7.4-7.6-9.1-.4-.3-1-.5-1.5-.8a19 19 0 0 0-26 24.5 5.28 5.28 0 0 1 .2 3.9c-.7 2.8-1.5 5.6-2.4 8.8z"></path>
</svg>