<svg version="1.1" id="Layer_1"
   xmlns="http://www.w3.org/2000/svg" xmlns:xlink="http://www.w3.org/1999/xlink" x="0px" y="0px" viewBox="0 0 30 20"
   style="enable-background:new 0 0 30 20;" xml:space="preserve">
  <g>
    <g>
      <defs>
        <polygon id="SVGID_2_" points="62.1,-2415.3 55.8,-2421.6 55.1,-2422.3 56.5,-2423.7 57.2,-2423 63.5,-2416.7 69.8,-2423 
          70.5,-2423.7 71.9,-2422.3 71.2,-2421.6 64.2,-2414.6 63.5,-2413.9        "/>
      </defs>
      <clipPath id="SVGID_3_">
        <use xlink:href="#SVGID_2_"  style="overflow:visible;"/>
      </clipPath>
      <g class="st0">
        <defs>
          <rect id="SVGID_4_" x="-268" y="-3050" width="375" height="8298"/>
        </defs>
        <clipPath id="SVGID_5_">
          <use xlink:href="#SVGID_4_"  style="overflow:visible;"/>
        </clipPath>
        <polygon class="st1" points="62.1,-2415.3 55.8,-2421.6 55.1,-2422.3 56.5,-2423.7 57.2,-2423 63.5,-2416.7 69.8,-2423 
          70.5,-2423.7 71.9,-2422.3 71.2,-2421.6 64.2,-2414.6 63.5,-2413.9        "/>
      </g>
    </g>
    <polygon class="st2" points="12.5,16.2 1.3,5 0,3.8 2.5,1.2 3.8,2.5 15,13.7 26.2,2.5 27.5,1.2 30,3.8 28.7,5 16.3,17.5 15,18.8 
          "/>
  </g>
</svg>
