<svg
    xmlns="http://www.w3.org/2000/svg" xmlns:xlink="http://www.w3.org/1999/xlink" x="0px" y="0px" viewBox="0 0 30 26"
    style="enable-background:new 0 0 30 26;" xml:space="preserve">
    <g>
       <path class="st0" d="M6.7,9V0H3.3v9c-1,0.6-1.7,1.7-1.7,2.9c0,1.3,0.7,2.4,1.7,2.9v10.8h3.4V14.9c1-0.6,1.7-1.7,1.7-2.9
           C8.4,10.7,7.8,9.6,6.7,9z"/>
       <rect x="13.6" class="st0" width="3.4" height="25.7"/>
       <path class="st0" d="M29,13.7c0-1.3-0.7-2.4-1.7-2.9V0h-3.4v10.8c-1,0.6-1.7,1.7-1.7,2.9c0,1.3,0.7,2.4,1.7,2.9v9h3.4v-9
           C28.3,16.1,29,15,29,13.7z"/>
   </g>
</svg>